<svg xmlns="http://www.w3.org/2000/svg" viewBox="0 0 68.51 60.62"><defs><style>.a{fill:#c7932c;}</style></defs><title>Tritama-Logo</title><rect class="a" x="22.48" y="0.87" width="1.74" height="52.26"/><rect class="a" x="28.05" y="4.55" width="1.74" height="48.58"/><rect class="a" x="34.15" y="10.4" width="1.74" height="42.73"/><rect class="a" x="40.14" y="4.55" width="1.74" height="48.58"/><rect class="a" x="45.64" y="0.87" width="1.74" height="52.26"/><rect class="a" x="4.02" width="20.2" height="1.74"/><rect class="a" x="45.65" width="19.33" height="1.74"/><rect class="a" x="28.05" y="49.75" width="13.83" height="3.38"/><path class="a" d="M263.14,440.48h3.28v.62h-3.28Zm1.32.38h.65v4.27h-.65Z" transform="translate(-263.14 -384.56)"/><path class="a" d="M266.94,440.47h.65v4.66h-.65Zm.28,2.07h1.59a.63.63,0,0,0,.33-.09.54.54,0,0,0,.22-.25.92.92,0,0,0,.08-.38.89.89,0,0,0-.08-.38.56.56,0,0,0-.22-.26.58.58,0,0,0-.33-.09h-1.59v-.62h1.56a1.46,1.46,0,0,1,.71.17,1.21,1.21,0,0,1,.48.47,1.49,1.49,0,0,1,.16.71,1.45,1.45,0,0,1-.16.7,1.3,1.3,0,0,1-.48.48,1.46,1.46,0,0,1-.71.16h-1.56Zm1.27.48.65-.15,1.19,2.26h-.77Z" transform="translate(-263.14 -384.56)"/><path class="a" d="M271.86,445.13h-.65v-4.65h.65Z" transform="translate(-263.14 -384.56)"/><path class="a" d="M272.38,440.48h3.28v.62h-3.28Zm1.31.38h.65v4.27h-.65Z" transform="translate(-263.14 -384.56)"/><path class="a" d="M277.38,440.48h.55l1.72,4.65h-.71l-1.29-3.75-1.29,3.75h-.7Zm-.93,3h2.45v.62h-2.45Z" transform="translate(-263.14 -384.56)"/><path class="a" d="M283.7,440.48h.61v4.65h-.64v-3.49l0,.21-1.14,2.63h-.46L281,441.91l0-.27v3.49h-.64v-4.65H281l1.37,3.07Z" transform="translate(-263.14 -384.56)"/><path class="a" d="M286.73,440.48h.56l1.71,4.65h-.7L287,441.38l-1.29,3.75H285Zm-.93,3h2.45v.62H285.8Z" transform="translate(-263.14 -384.56)"/><path class="a" d="M290.83,440.48h.65v4.65h-.65Zm.31,0h2.68v.62h-2.68Zm0,2h2.32v.62h-2.32Zm0,2h2.68v.62h-2.68Z" transform="translate(-263.14 -384.56)"/><path class="a" d="M294.74,440.48h.6l2.27,3.59-.07.09v-3.68h.64v4.65h-.6l-2.27-3.55.08-.08v3.63h-.65Z" transform="translate(-263.14 -384.56)"/><path class="a" d="M302.52,442.62v.82a1.91,1.91,0,0,1-.21.91,1.35,1.35,0,0,1-.57.61,1.58,1.58,0,0,1-.85.22,1.86,1.86,0,0,1-.87-.2,1.47,1.47,0,0,1-.58-.58,1.82,1.82,0,0,1-.2-.86v-1.37a2.08,2.08,0,0,1,.2-.92,1.46,1.46,0,0,1,.57-.61,1.78,1.78,0,0,1,1.6,0,1.61,1.61,0,0,1,.56.48,2,2,0,0,1,.31.73h-.71a1.06,1.06,0,0,0-.19-.4,1,1,0,0,0-.33-.26.84.84,0,0,0-.38-.08,1,1,0,0,0-.51.13.85.85,0,0,0-.33.39,1.31,1.31,0,0,0-.12.58v1.37a1.12,1.12,0,0,0,.12.53.88.88,0,0,0,.34.35,1.08,1.08,0,0,0,.52.12.91.91,0,0,0,.5-.13.82.82,0,0,0,.34-.37,1.35,1.35,0,0,0,.12-.59v-.2h-1v-.63Z" transform="translate(-263.14 -384.56)"/><path class="a" d="M304.23,445.13h-.66v-4.65h.66Z" transform="translate(-263.14 -384.56)"/><path class="a" d="M305.38,440.48H306l2.28,3.59-.08.09v-3.68h.64v4.65h-.59L306,441.58l.07-.08v3.63h-.64Z" transform="translate(-263.14 -384.56)"/><path class="a" d="M310,440.48h.65v4.65H310Zm.32,0H313v.62h-2.67Zm0,2h2.32v.62h-2.32Zm0,2H313v.62h-2.67Z" transform="translate(-263.14 -384.56)"/><path class="a" d="M313.89,440.48h.65v4.65h-.65Zm.31,0h2.68v.62H314.2Zm0,2h2.32v.62H314.2Zm0,2h2.68v.62H314.2Z" transform="translate(-263.14 -384.56)"/><path class="a" d="M317.8,440.47h.66v4.66h-.66Zm.29,2.07h1.59a.63.63,0,0,0,.33-.09.6.6,0,0,0,.22-.25.92.92,0,0,0,.08-.38.89.89,0,0,0-.08-.38.58.58,0,0,0-.55-.35h-1.59v-.62h1.56a1.46,1.46,0,0,1,.71.17,1.18,1.18,0,0,1,.47.47,1.38,1.38,0,0,1,.17.71,1.35,1.35,0,0,1-.17.7,1.21,1.21,0,0,1-.47.48,1.49,1.49,0,0,1-.71.16h-1.56Zm1.27.48.65-.15,1.19,2.26h-.78Z" transform="translate(-263.14 -384.56)"/><path class="a" d="M322.73,445.13h-.65v-4.65h.65Z" transform="translate(-263.14 -384.56)"/><path class="a" d="M323.88,440.48h.59l2.28,3.59-.08.09v-3.68h.65v4.65h-.6l-2.27-3.55.08-.08v3.63h-.65Z" transform="translate(-263.14 -384.56)"/><path class="a" d="M331.65,442.62v.82a1.91,1.91,0,0,1-.2.91,1.35,1.35,0,0,1-.57.61,1.61,1.61,0,0,1-.85.22,1.86,1.86,0,0,1-.87-.2,1.47,1.47,0,0,1-.58-.58,1.82,1.82,0,0,1-.2-.86v-1.37a2,2,0,0,1,.2-.92,1.46,1.46,0,0,1,.57-.61,1.71,1.71,0,0,1,.86-.21,1.63,1.63,0,0,1,.73.17,1.56,1.56,0,0,1,.57.48,2,2,0,0,1,.31.73h-.71a1.08,1.08,0,0,0-.2-.4,1,1,0,0,0-.32-.26.84.84,0,0,0-.38-.08.94.94,0,0,0-.51.13.93.93,0,0,0-.34.39,1.31,1.31,0,0,0-.11.58v1.37a1.12,1.12,0,0,0,.12.53.88.88,0,0,0,.34.35,1.08,1.08,0,0,0,.52.12.91.91,0,0,0,.5-.13.82.82,0,0,0,.34-.37,1.35,1.35,0,0,0,.12-.59v-.2H330v-.63Z" transform="translate(-263.14 -384.56)"/></svg>