<svg id="Layer_1" data-name="Layer 1" xmlns="http://www.w3.org/2000/svg" viewBox="0 0 251.872 40.444"><defs><style>.logo-icon,.logo-type{fill:#c7932c;}.logo-icon{fill-rule:evenodd;}</style></defs><title>tritama-header</title><polygon class="logo-icon" points="27.496 37.87 24.264 37.87 24.264 7.914 22.938 7.914 22.938 37.87 19.623 37.87 19.623 3.465 18.297 3.465 18.297 37.87 18.297 40.444 19.623 40.444 22.938 40.444 24.264 40.444 27.496 40.444 28.822 40.444 28.822 37.87 28.822 3.465 27.496 3.465 27.496 37.87"/><polygon class="logo-icon" points="15.379 0 0 0 0 1.326 14.054 1.326 14.054 40.444 15.38 40.444 15.38 0.663 15.379 0.663 15.379 0"/><polygon class="logo-icon" points="46.408 0 31.695 0 31.695 0.663 31.689 0.663 31.689 40.444 33.015 40.444 33.015 1.326 46.408 1.326 46.408 0"/><path class="logo-type" d="M61.739,22.583h9.855V23.87H61.739Zm4.236.567h1.383v13.4H65.975Z" transform="translate(-12.102 -10.338)"/><path class="logo-type" d="M73.131,22.573h1.383V36.549H73.131Zm.855,6.782H78.75a2.693,2.693,0,0,0,1.369-.341,2.3,2.3,0,0,0,.912-.965,3.175,3.175,0,0,0,.332-1.441,3.109,3.109,0,0,0-.322-1.441,2.314,2.314,0,0,0-.913-.966,2.708,2.708,0,0,0-1.378-.34H73.986V22.573h4.687a4.379,4.379,0,0,1,2.128.5,3.509,3.509,0,0,1,1.422,1.417,4.7,4.7,0,0,1,0,4.236A3.5,3.5,0,0,1,80.8,30.143a4.386,4.386,0,0,1-2.123.5H73.986Zm4.476.855,1.277-.442,3.574,6.781H81.661Z" transform="translate(-12.102 -10.338)"/><path class="logo-type" d="M87.626,36.549H86.242V22.583h1.384Z" transform="translate(-12.102 -10.338)"/><path class="logo-type" d="M89.451,22.583h9.855V23.87H89.451Zm4.236.567H95.07v13.4H93.687Z" transform="translate(-12.102 -10.338)"/><path class="logo-type" d="M104.455,22.583h1.671l5.148,13.966h-1.537L105.29,24.033l-4.447,12.516H99.306Zm-2.776,9.289h7.348v1.287h-7.348Z" transform="translate(-12.102 -10.338)"/><path class="logo-type" d="M123.81,22.583h1.45V36.549h-1.384v-12l.145.615-4.207,9.442h-.98l-4.208-9.25.145-.807v12h-1.384V22.583h1.451l4.485,10.086Z" transform="translate(-12.102 -10.338)"/><path class="logo-type" d="M132.523,22.583h1.67l5.149,13.966h-1.537l-4.448-12.516L128.91,36.549h-1.537Zm-2.777,9.289H137.1v1.287h-7.349Z" transform="translate(-12.102 -10.338)"/><path class="logo-type" d="M141.454,22.583h1.384V36.549h-1.384Zm.951,0h8.021V23.87h-8.021Zm0,6.388h6.964v1.287h-6.964Zm0,6.291h8.021v1.287h-8.021Z" transform="translate(-12.102 -10.338)"/><path class="logo-type" d="M153.212,22.583h1.394l8.106,12.583-.566-.385v-12.2h1.382V36.539h-1.411l-8.27-12.678.749.547V36.539h-1.384Z" transform="translate(-12.102 -10.338)"/><path class="logo-type" d="M176.535,29.413v2.055a6.865,6.865,0,0,1-.543,2.91,3.647,3.647,0,0,1-1.628,1.738,5.742,5.742,0,0,1-2.718.578,6.148,6.148,0,0,1-2.752-.548,3.583,3.583,0,0,1-1.648-1.638,6.059,6.059,0,0,1-.548-2.733v-4.12a6.855,6.855,0,0,1,.543-2.906,3.679,3.679,0,0,1,1.628-1.734,5.759,5.759,0,0,1,2.719-.576,5.429,5.429,0,0,1,2.334.461,3.945,3.945,0,0,1,1.6,1.379,6.146,6.146,0,0,1,.894,2.31h-1.5a4.89,4.89,0,0,0-.7-1.595,2.859,2.859,0,0,0-1.1-.951,3.494,3.494,0,0,0-1.532-.317,3.943,3.943,0,0,0-1.95.437,2.732,2.732,0,0,0-1.167,1.306,5.373,5.373,0,0,0-.389,2.186v4.12a4.575,4.575,0,0,0,.394,2.023,2.6,2.6,0,0,0,1.186,1.2,4.34,4.34,0,0,0,1.984.4,3.955,3.955,0,0,0,1.916-.413,2.578,2.578,0,0,0,1.133-1.277,5.562,5.562,0,0,0,.379-2.219v-.8h-3.381V29.413Z" transform="translate(-12.102 -10.338)"/><path class="logo-type" d="M181.375,36.549h-1.383V22.583h1.383Z" transform="translate(-12.102 -10.338)"/><path class="logo-type" d="M185.121,22.583h1.394l8.106,12.583-.566-.385v-12.2h1.383V36.539h-1.412l-8.27-12.678.749.547V36.539h-1.384Z" transform="translate(-12.102 -10.338)"/><path class="logo-type" d="M198.9,22.583h1.383V36.549H198.9Zm.951,0h8.02V23.87h-8.02Zm0,6.388h6.964v1.287h-6.964Zm0,6.291h8.02v1.287h-8.02Z" transform="translate(-12.102 -10.338)"/><path class="logo-type" d="M210.652,22.583h1.384V36.549h-1.384Zm.952,0h8.02V23.87H211.6Zm0,6.388h6.963v1.287H211.6Zm0,6.291h8.02v1.287H211.6Z" transform="translate(-12.102 -10.338)"/><path class="logo-type" d="M222.41,22.573h1.384V36.549H222.41Zm.856,6.782h4.764a2.693,2.693,0,0,0,1.369-.341,2.312,2.312,0,0,0,.913-.965,3.214,3.214,0,0,0,.331-1.441,3.1,3.1,0,0,0-.323-1.441,2.306,2.306,0,0,0-.912-.966,2.708,2.708,0,0,0-1.378-.34h-4.764V22.573h4.687a4.382,4.382,0,0,1,2.128.5A3.5,3.5,0,0,1,231.5,24.49a4.694,4.694,0,0,1,0,4.236,3.488,3.488,0,0,1-1.426,1.417,4.386,4.386,0,0,1-2.123.5h-4.687Zm4.476.855,1.278-.442,3.573,6.781h-1.652Z" transform="translate(-12.102 -10.338)"/><path class="logo-type" d="M236.905,36.549h-1.382V22.583h1.382Z" transform="translate(-12.102 -10.338)"/><path class="logo-type" d="M240.65,22.583h1.394l8.106,12.583-.566-.385v-12.2h1.383V36.539h-1.411l-8.271-12.678.749.547V36.539H240.65Z" transform="translate(-12.102 -10.338)"/><path class="logo-type" d="M263.974,29.413v2.055a6.881,6.881,0,0,1-.543,2.91,3.656,3.656,0,0,1-1.628,1.738,5.746,5.746,0,0,1-2.719.578,6.151,6.151,0,0,1-2.752-.548,3.586,3.586,0,0,1-1.647-1.638,6.046,6.046,0,0,1-.548-2.733v-4.12a6.84,6.84,0,0,1,.543-2.906,3.669,3.669,0,0,1,1.628-1.734,5.755,5.755,0,0,1,2.718-.576,5.426,5.426,0,0,1,2.334.461,3.941,3.941,0,0,1,1.6,1.379,6.129,6.129,0,0,1,.893,2.31h-1.5a4.89,4.89,0,0,0-.7-1.595,2.863,2.863,0,0,0-1.1-.951,3.5,3.5,0,0,0-1.533-.317,3.945,3.945,0,0,0-1.95.437,2.737,2.737,0,0,0-1.167,1.306,5.374,5.374,0,0,0-.388,2.186v4.12a4.575,4.575,0,0,0,.393,2.023A2.6,2.6,0,0,0,257.1,35a4.333,4.333,0,0,0,1.983.4A3.955,3.955,0,0,0,261,34.993a2.58,2.58,0,0,0,1.134-1.277,5.562,5.562,0,0,0,.379-2.219v-.8h-3.381V29.413Z" transform="translate(-12.102 -10.338)"/></svg>